<svg xmlns="http://www.w3.org/2000/svg" fill="none" viewBox="0 0 278.77 65">
<path d="M73.2988 31.6719V53H68.9043V31.6719H73.2988ZM81.7949 40.7832V44.2109H72.0977V40.7832H81.7949ZM82.8203 31.6719V35.1143H72.0977V31.6719H82.8203ZM99.6801 49.5723V53H88.9428V49.5723H99.6801ZM90.3637 31.6719V53H85.9691V31.6719H90.3637ZM114.079 31.6719H118.459V45.7637C118.459 47.4043 118.107 48.7861 117.404 49.9092C116.711 51.0322 115.749 51.877 114.518 52.4434C113.298 53.0098 111.891 53.293 110.3 53.293C108.708 53.293 107.292 53.0098 106.052 52.4434C104.821 51.877 103.854 51.0322 103.151 49.9092C102.458 48.7861 102.111 47.4043 102.111 45.7637V31.6719H106.506V45.7637C106.506 46.7207 106.657 47.502 106.96 48.1074C107.263 48.7129 107.697 49.1572 108.263 49.4404C108.84 49.7236 109.518 49.8652 110.3 49.8652C111.1 49.8652 111.779 49.7236 112.336 49.4404C112.902 49.1572 113.332 48.7129 113.625 48.1074C113.928 47.502 114.079 46.7207 114.079 45.7637V31.6719ZM140.196 41.8379V42.8486C140.196 44.4697 139.977 45.9248 139.537 47.2139C139.098 48.5029 138.478 49.6016 137.677 50.5098C136.876 51.4082 135.919 52.0967 134.806 52.5752C133.702 53.0537 132.477 53.293 131.129 53.293C129.791 53.293 128.566 53.0537 127.452 52.5752C126.349 52.0967 125.392 51.4082 124.581 50.5098C123.771 49.6016 123.141 48.5029 122.692 47.2139C122.252 45.9248 122.032 44.4697 122.032 42.8486V41.8379C122.032 40.207 122.252 38.752 122.692 37.4727C123.131 36.1836 123.751 35.085 124.552 34.1768C125.362 33.2686 126.32 32.5752 127.423 32.0967C128.536 31.6182 129.762 31.3789 131.1 31.3789C132.447 31.3789 133.673 31.6182 134.777 32.0967C135.89 32.5752 136.847 33.2686 137.648 34.1768C138.458 35.085 139.083 36.1836 139.523 37.4727C139.972 38.752 140.196 40.207 140.196 41.8379ZM135.758 42.8486V41.8086C135.758 40.6758 135.655 39.6797 135.45 38.8203C135.245 37.9609 134.943 37.2383 134.542 36.6523C134.142 36.0664 133.654 35.627 133.077 35.334C132.501 35.0312 131.842 34.8799 131.1 34.8799C130.358 34.8799 129.698 35.0312 129.122 35.334C128.556 35.627 128.072 36.0664 127.672 36.6523C127.281 37.2383 126.984 37.9609 126.779 38.8203C126.573 39.6797 126.471 40.6758 126.471 41.8086V42.8486C126.471 43.9717 126.573 44.9678 126.779 45.8369C126.984 46.6963 127.286 47.4238 127.687 48.0195C128.087 48.6055 128.575 49.0498 129.152 49.3525C129.728 49.6553 130.387 49.8066 131.129 49.8066C131.871 49.8066 132.53 49.6553 133.107 49.3525C133.683 49.0498 134.166 48.6055 134.557 48.0195C134.947 47.4238 135.245 46.6963 135.45 45.8369C135.655 44.9678 135.758 43.9717 135.758 42.8486ZM143.961 31.6719H151.915C153.546 31.6719 154.947 31.916 156.119 32.4043C157.3 32.8926 158.209 33.6152 158.843 34.5723C159.478 35.5293 159.796 36.7061 159.796 38.1025C159.796 39.2451 159.6 40.2266 159.21 41.0469C158.829 41.8574 158.287 42.5361 157.584 43.083C156.89 43.6201 156.075 44.0498 155.137 44.3721L153.746 45.1045H146.832L146.802 41.6768H151.944C152.715 41.6768 153.355 41.54 153.863 41.2666C154.371 40.9932 154.752 40.6123 155.005 40.124C155.269 39.6357 155.401 39.0693 155.401 38.4248C155.401 37.7412 155.274 37.1504 155.02 36.6523C154.766 36.1543 154.38 35.7734 153.863 35.5098C153.345 35.2461 152.696 35.1143 151.915 35.1143H148.355V53H143.961V31.6719ZM155.884 53L151.021 43.4932L155.665 43.4639L160.587 52.7949V53H155.884ZM181.299 41.8379V42.8486C181.299 44.4697 181.079 45.9248 180.64 47.2139C180.2 48.5029 179.58 49.6016 178.779 50.5098C177.979 51.4082 177.021 52.0967 175.908 52.5752C174.805 53.0537 173.579 53.293 172.231 53.293C170.894 53.293 169.668 53.0537 168.555 52.5752C167.451 52.0967 166.494 51.4082 165.684 50.5098C164.873 49.6016 164.243 48.5029 163.794 47.2139C163.354 45.9248 163.135 44.4697 163.135 42.8486V41.8379C163.135 40.207 163.354 38.752 163.794 37.4727C164.233 36.1836 164.854 35.085 165.654 34.1768C166.465 33.2686 167.422 32.5752 168.525 32.0967C169.639 31.6182 170.864 31.3789 172.202 31.3789C173.55 31.3789 174.775 31.6182 175.879 32.0967C176.992 32.5752 177.949 33.2686 178.75 34.1768C179.561 35.085 180.186 36.1836 180.625 37.4727C181.074 38.752 181.299 40.207 181.299 41.8379ZM176.86 42.8486V41.8086C176.86 40.6758 176.758 39.6797 176.553 38.8203C176.348 37.9609 176.045 37.2383 175.645 36.6523C175.244 36.0664 174.756 35.627 174.18 35.334C173.604 35.0312 172.944 34.8799 172.202 34.8799C171.46 34.8799 170.801 35.0312 170.225 35.334C169.658 35.627 169.175 36.0664 168.774 36.6523C168.384 37.2383 168.086 37.9609 167.881 38.8203C167.676 39.6797 167.573 40.6758 167.573 41.8086V42.8486C167.573 43.9717 167.676 44.9678 167.881 45.8369C168.086 46.6963 168.389 47.4238 168.789 48.0195C169.189 48.6055 169.678 49.0498 170.254 49.3525C170.83 49.6553 171.489 49.8066 172.231 49.8066C172.974 49.8066 173.633 49.6553 174.209 49.3525C174.785 49.0498 175.269 48.6055 175.659 48.0195C176.05 47.4238 176.348 46.6963 176.553 45.8369C176.758 44.9678 176.86 43.9717 176.86 42.8486ZM189.457 31.6719V53H185.063V31.6719H189.457ZM202.231 31.6719L193.779 42.2041L188.901 47.4482L188.11 43.2881L191.406 38.7764L196.84 31.6719H202.231ZM197.236 53L190.952 43.1416L194.204 40.417L202.436 53H197.236ZM204.735 31.6719H212.689C214.32 31.6719 215.721 31.916 216.893 32.4043C218.075 32.8926 218.983 33.6152 219.618 34.5723C220.253 35.5293 220.57 36.7061 220.57 38.1025C220.57 39.2451 220.375 40.2266 219.984 41.0469C219.603 41.8574 219.061 42.5361 218.358 43.083C217.665 43.6201 216.849 44.0498 215.912 44.3721L214.52 45.1045H207.606L207.577 41.6768H212.719C213.49 41.6768 214.13 41.54 214.637 41.2666C215.145 40.9932 215.526 40.6123 215.78 40.124C216.044 39.6357 216.176 39.0693 216.176 38.4248C216.176 37.7412 216.049 37.1504 215.795 36.6523C215.541 36.1543 215.155 35.7734 214.637 35.5098C214.12 35.2461 213.471 35.1143 212.689 35.1143H209.13V53H204.735V31.6719ZM216.659 53L211.796 43.4932L216.439 43.4639L221.361 52.7949V53H216.659ZM233.226 35.3193L227.425 53H222.752L230.677 31.6719H233.651L233.226 35.3193ZM238.045 53L232.23 35.3193L231.761 31.6719H234.764L242.733 53H238.045ZM237.781 45.0605V48.5029H226.517V45.0605H237.781ZM249.705 31.6719V53H245.31V31.6719H249.705ZM258.201 40.7832V44.2109H248.504V40.7832H258.201ZM259.226 31.6719V35.1143H248.504V31.6719H259.226ZM272.204 31.6719V53H267.824V31.6719H272.204ZM278.767 31.6719V35.1143H261.364V31.6719H278.767Z" fill="white"/>
<path fill-rule="evenodd" clip-rule="evenodd" d="M0 0V65H6.14613L14.341 56.4806L14.1834 35.6553H19.8567L32.3066 23.3495H14.4986V13.2524H41.7622L55 0H0Z" fill="#519CC4"/>
<path d="M32.3066 23.3495L19.8567 35.6553V49.2233L35.3009 64.8422H54.3696C46.7526 57.1116 31.4871 41.6189 31.361 41.4927C31.235 41.3665 31.3085 41.2298 31.361 41.1772L49.0115 23.3495H32.3066Z" fill="#175B85"/>
</svg>